<?xml version="1.0" encoding="utf-8"?>
<!-- Generator: Adobe Illustrator 27.2.0, SVG Export Plug-In . SVG Version: 6.00 Build 0)  -->
<svg version="1.1" id="圖層_1" xmlns="http://www.w3.org/2000/svg" xmlns:xlink="http://www.w3.org/1999/xlink" x="0px" y="0px"
	 viewBox="0 0 48.7 48.7" style="enable-background:new 0 0 48.7 48.7;" xml:space="preserve">
<style type="text/css">
	.st0{fill:none;stroke:#000000;stroke-width:3;stroke-miterlimit:8;}
</style>
<path class="st0" d="M6.7,28.6l-1,0c-1,0-1.4,0-1.8-0.1c-1.1-0.3-2-1.1-2.2-2.2c-0.1-0.4-0.1-0.8-0.1-1.8c0-1,0-1.4,0.1-1.8
	c0.3-1.1,1.1-2,2.2-2.2c0.4-0.1,0.8-0.1,1.8-0.1l1,0 M27.5,28.5l15.6,0c1,0,1.4,0,1.8-0.1c1.1-0.3,2-1.1,2.2-2.2
	c0.1-0.4,0.1-0.8,0.1-1.8c0-1,0-1.4-0.1-1.8c-0.3-1.1-1.1-2-2.2-2.2c-0.4-0.1-0.8-0.1-1.8-0.1l-15.6,0 M27.4,18.1l0,12.4
	c0,4.9,0,7.4-1.6,8.9C24.3,41,21.9,41,17,41c-4.9,0-7.3,0.1-8.8-1.5s-1.6-4-1.6-8.9l0-12.4c0-4.9,0.1-7.4,1.6-8.9s4-1.6,8.9-1.6
	c4.9,0,7.4,0,8.9,1.6C27.4,10.7,27.4,13.3,27.4,18.1z"/>
</svg>
