<?xml version="1.0" encoding="utf-8"?>
<!-- Generator: Adobe Illustrator 27.2.0, SVG Export Plug-In . SVG Version: 6.00 Build 0)  -->
<svg version="1.1" id="圖層_1" xmlns="http://www.w3.org/2000/svg" xmlns:xlink="http://www.w3.org/1999/xlink" x="0px" y="0px"
	 viewBox="0 0 48 48" style="enable-background:new 0 0 48 48;" xml:space="preserve">
<style type="text/css">
	.st0{fill:none;stroke:#000000;stroke-width:3;stroke-miterlimit:8;}
</style>
<path class="st0" d="M10.7,16.6l-0.7-0.7c-0.7-0.7-1-1-1.2-1.4c-0.6-1-0.6-2.2,0-3.1c0.2-0.4,0.5-0.7,1.2-1.4s1-1,1.4-1.2
	c1-0.6,2.2-0.6,3.1,0c0.4,0.2,0.7,0.5,1.4,1.2l0.7,0.7 M25.4,31.3l11,11c0.7,0.7,1,1,1.4,1.2c1,0.6,2.2,0.6,3.1,0
	c0.4-0.2,0.7-0.5,1.4-1.2c0.7-0.7,1-1,1.2-1.4c0.6-1,0.6-2.2,0-3.1c-0.2-0.4-0.5-0.7-1.2-1.4l-11-11 M32.8,23.9l-8.8,8.8
	c-3.5,3.5-5.2,5.2-7.4,5.2s-3.9-1.7-7.4-5.2S4,27.6,4,25.4c0-2.2,1.7-3.9,5.2-7.4L18,9.2C21.5,5.7,23.3,4,25.4,4s3.9,1.7,7.4,5.2
	s5.2,5.2,5.2,7.4C38,18.7,36.2,20.5,32.8,23.9z"/>
</svg>
